<svg xmlns="http://www.w3.org/2000/svg" viewBox="0 0 500 500"><g id="freepik--Rocket--inject-59"><path d="M287.79,132.09V334.53H212.15V132.09c0-28.08-1.91-44.37,14.82-68,14.57-20.57,20.31-23.28,23-23.28s8.44,2.71,23,23.28C289.7,87.72,287.79,104,287.79,132.09Z" style="fill:#90CAF9"></path><path d="M265.22,53.74h-30.5c9-11.2,13.11-12.93,15.25-12.93S256.22,42.54,265.22,53.74Z" style="fill:#fff;opacity:0.4"></path><g style="opacity:0.2"><path d="M223.22,69.78q6.69-.15,13.38-.2l13.37,0,13.38,0q6.67.06,13.37.2-6.69.14-13.37.19L250,70,236.6,70Q229.91,69.91,223.22,69.78Z" style="fill:#020100"></path><polygon points="212.17 112.69 221.63 112.57 231.09 112.52 250 112.44 268.91 112.52 278.37 112.57 287.83 112.69 278.37 112.81 268.91 112.86 250 112.94 231.09 112.86 221.63 112.81 212.17 112.69" style="fill:#020100"></polygon><path d="M212.71,101.05q9.31-.14,18.63-.19L250,100.8l18.63.06q9.31,0,18.63.19-9.32.14-18.63.19L250,101.3l-18.63-.06Q222,101.2,212.71,101.05Z" style="fill:#020100"></path><polygon points="212.17 157.78 221.63 157.65 231.09 157.61 250 157.53 268.91 157.61 278.37 157.65 287.83 157.78 278.37 157.9 268.91 157.94 250 158.02 231.09 157.94 221.63 157.9 212.17 157.78" style="fill:#020100"></polygon><polygon points="212.17 202.86 221.63 202.74 231.09 202.69 250 202.61 268.91 202.69 278.37 202.74 287.83 202.86 278.37 202.98 268.91 203.03 250 203.11 231.09 203.03 221.63 202.98 212.17 202.86" style="fill:#020100"></polygon><polygon points="212.17 247.94 221.63 247.82 231.09 247.78 250 247.69 268.91 247.78 278.37 247.82 287.83 247.94 278.37 248.07 268.91 248.11 250 248.19 231.09 248.11 221.63 248.07 212.17 247.94" style="fill:#020100"></polygon><polygon points="212.17 293.03 221.63 292.91 231.09 292.86 250 292.78 268.91 292.86 278.37 292.91 287.83 293.03 278.37 293.15 268.91 293.2 250 293.28 231.09 293.19 221.63 293.15 212.17 293.03" style="fill:#020100"></polygon><path d="M226.08,72.66a1,1,0,0,1-.89,1,1,1,0,1,1,0-1.91A1,1,0,0,1,226.08,72.66Zm0,0a.83.83,0,1,0-.89.83A.84.84,0,0,0,226.08,72.66Z" style="fill:#020100"></path><path d="M236,72.66a1,1,0,1,1-.9-1A1,1,0,0,1,236,72.66Zm0,0a.84.84,0,1,0-.9.83A.85.85,0,0,0,236,72.66Z" style="fill:#020100"></path><path d="M245.91,72.66a1,1,0,1,1-.89-1A1,1,0,0,1,245.91,72.66Zm0,0a.83.83,0,0,0-.89-.83.81.81,0,0,0-.77.83.83.83,0,0,0,.77.83A.85.85,0,0,0,245.91,72.66Z" style="fill:#020100"></path><path d="M255.82,72.66a1,1,0,0,1-.89,1,1,1,0,1,1,0-1.91A1,1,0,0,1,255.82,72.66Zm0,0a.83.83,0,1,0-.89.83A.84.84,0,0,0,255.82,72.66Z" style="fill:#020100"></path><path d="M265.73,72.66a1,1,0,0,1-.89,1,1,1,0,1,1,0-1.91A1,1,0,0,1,265.73,72.66Zm0,0a.83.83,0,1,0-.89.83A.84.84,0,0,0,265.73,72.66Z" style="fill:#020100"></path><path d="M275.65,72.66a1,1,0,1,1-.9-1A1,1,0,0,1,275.65,72.66Zm0,0a.85.85,0,0,0-.9-.84.84.84,0,0,0,0,1.67A.85.85,0,0,0,275.65,72.66Z" style="fill:#020100"></path><path d="M226.08,115.25a1,1,0,0,1-.89,1,1,1,0,1,1,0-1.91A1,1,0,0,1,226.08,115.25Zm0,0a.83.83,0,1,0-1.66,0,.83.83,0,1,0,1.66,0Z" style="fill:#020100"></path><path d="M236,115.25a1,1,0,1,1-.9-1A1,1,0,0,1,236,115.25Zm0,0a.84.84,0,1,0-.9.83A.85.85,0,0,0,236,115.25Z" style="fill:#020100"></path><path d="M216.17,115.25a1,1,0,1,1-.89-1A1,1,0,0,1,216.17,115.25Zm0,0a.83.83,0,0,0-.89-.83.83.83,0,0,0,0,1.66A.85.85,0,0,0,216.17,115.25Z" style="fill:#020100"></path><path d="M245.91,115.25a1,1,0,1,1-.89-1A1,1,0,0,1,245.91,115.25Zm0,0a.83.83,0,0,0-.89-.83.83.83,0,0,0,0,1.66A.85.85,0,0,0,245.91,115.25Z" style="fill:#020100"></path><path d="M255.82,115.25a1,1,0,0,1-.89,1,1,1,0,1,1,0-1.91A1,1,0,0,1,255.82,115.25Zm0,0a.83.83,0,1,0-.89.83A.83.83,0,0,0,255.82,115.25Z" style="fill:#020100"></path><path d="M265.73,115.25a1,1,0,0,1-.89,1,1,1,0,1,1,0-1.91A1,1,0,0,1,265.73,115.25Zm0,0a.82.82,0,0,0-.89-.83.83.83,0,1,0,.89.83Z" style="fill:#020100"></path><path d="M275.65,115.25a1,1,0,1,1-.9-1A1,1,0,0,1,275.65,115.25Zm0,0a.84.84,0,0,0-.9-.83.83.83,0,0,0,0,1.66A.85.85,0,0,0,275.65,115.25Z" style="fill:#020100"></path><path d="M285.56,115.25a1,1,0,0,1-1.91,0,1,1,0,1,1,1.91,0Zm0,0a.83.83,0,1,0-.89.83A.84.84,0,0,0,285.56,115.25Z" style="fill:#020100"></path><path d="M226.08,104a1,1,0,0,1-.89.95,1,1,0,1,1,0-1.91A1,1,0,0,1,226.08,104Zm0,0a.83.83,0,1,0-.89.83A.84.84,0,0,0,226.08,104Z" style="fill:#020100"></path><path d="M236,104a1,1,0,1,1-.9-1A1,1,0,0,1,236,104Zm0,0a.84.84,0,1,0-.9.83A.85.85,0,0,0,236,104Z" style="fill:#020100"></path><path d="M216.17,104a1,1,0,1,1-.89-1A1,1,0,0,1,216.17,104Zm0,0a.83.83,0,0,0-.89-.83.81.81,0,0,0-.77.83.83.83,0,0,0,.77.83A.85.85,0,0,0,216.17,104Z" style="fill:#020100"></path><path d="M245.91,104a1,1,0,1,1-.89-1A1,1,0,0,1,245.91,104Zm0,0a.83.83,0,0,0-.89-.83.81.81,0,0,0-.77.83.83.83,0,0,0,.77.83A.85.85,0,0,0,245.91,104Z" style="fill:#020100"></path><path d="M255.82,104a1,1,0,0,1-.89.95,1,1,0,1,1,0-1.91A1,1,0,0,1,255.82,104Zm0,0a.83.83,0,1,0-.89.83A.84.84,0,0,0,255.82,104Z" style="fill:#020100"></path><path d="M265.73,104a1,1,0,0,1-.89.95,1,1,0,1,1,0-1.91A1,1,0,0,1,265.73,104Zm0,0a.83.83,0,1,0-.89.83A.84.84,0,0,0,265.73,104Z" style="fill:#020100"></path><path d="M275.65,104a1,1,0,1,1-.9-1A1,1,0,0,1,275.65,104Zm0,0a.84.84,0,0,0-.9-.83.81.81,0,0,0-.76.83.83.83,0,0,0,.76.83A.85.85,0,0,0,275.65,104Z" style="fill:#020100"></path><path d="M285.56,104a1,1,0,0,1-1.91,0,1,1,0,1,1,1.91,0Zm0,0a.83.83,0,1,0-.89.83A.84.84,0,0,0,285.56,104Z" style="fill:#020100"></path><path d="M226.08,160.92a1,1,0,0,1-.89,1,1,1,0,1,1,0-1.91A1,1,0,0,1,226.08,160.92Zm0,0a.83.83,0,1,0-1.66,0,.83.83,0,1,0,1.66,0Z" style="fill:#020100"></path><path d="M236,160.92a1,1,0,1,1-.9-1A1,1,0,0,1,236,160.92Zm0,0a.84.84,0,1,0-.9.83A.85.85,0,0,0,236,160.92Z" style="fill:#020100"></path><path d="M216.17,160.92a1,1,0,1,1-.89-1A1,1,0,0,1,216.17,160.92Zm0,0a.83.83,0,0,0-.89-.83.83.83,0,0,0,0,1.66A.85.85,0,0,0,216.17,160.92Z" style="fill:#020100"></path><path d="M245.91,160.92a1,1,0,1,1-.89-1A1,1,0,0,1,245.91,160.92Zm0,0a.83.83,0,0,0-.89-.83.83.83,0,0,0,0,1.66A.85.85,0,0,0,245.91,160.92Z" style="fill:#020100"></path><path d="M255.82,160.92a1,1,0,0,1-.89,1,1,1,0,1,1,0-1.91A1,1,0,0,1,255.82,160.92Zm0,0a.83.83,0,1,0-.89.83A.83.83,0,0,0,255.82,160.92Z" style="fill:#020100"></path><path d="M265.73,160.92a1,1,0,0,1-.89,1,1,1,0,1,1,0-1.91A1,1,0,0,1,265.73,160.92Zm0,0a.82.82,0,0,0-.89-.83.83.83,0,1,0,.89.83Z" style="fill:#020100"></path><path d="M275.65,160.92a1,1,0,1,1-.9-1A1,1,0,0,1,275.65,160.92Zm0,0a.84.84,0,0,0-.9-.83.83.83,0,0,0,0,1.66A.85.85,0,0,0,275.65,160.92Z" style="fill:#020100"></path><path d="M285.56,160.92a1,1,0,0,1-1.91,0,1,1,0,1,1,1.91,0Zm0,0a.83.83,0,1,0-.89.83A.84.84,0,0,0,285.56,160.92Z" style="fill:#020100"></path><path d="M226.08,206.59a1,1,0,0,1-.89.95,1,1,0,1,1,0-1.91A1,1,0,0,1,226.08,206.59Zm0,0a.83.83,0,1,0-1.66,0,.83.83,0,1,0,1.66,0Z" style="fill:#020100"></path><path d="M236,206.59a1,1,0,1,1-.9-1A1,1,0,0,1,236,206.59Zm0,0a.84.84,0,1,0-.9.83A.85.85,0,0,0,236,206.59Z" style="fill:#020100"></path><path d="M216.17,206.59a1,1,0,1,1-.89-1A1,1,0,0,1,216.17,206.59Zm0,0a.83.83,0,0,0-.89-.83.83.83,0,0,0,0,1.66A.85.85,0,0,0,216.17,206.59Z" style="fill:#020100"></path><path d="M245.91,206.59a1,1,0,1,1-.89-1A1,1,0,0,1,245.91,206.59Zm0,0a.83.83,0,0,0-.89-.83.83.83,0,0,0,0,1.66A.85.85,0,0,0,245.91,206.59Z" style="fill:#020100"></path><path d="M255.82,206.59a1,1,0,0,1-.89.95,1,1,0,1,1,0-1.91A1,1,0,0,1,255.82,206.59Zm0,0a.83.83,0,1,0-.89.83A.83.83,0,0,0,255.82,206.59Z" style="fill:#020100"></path><path d="M265.73,206.59a1,1,0,0,1-.89.95,1,1,0,1,1,0-1.91A1,1,0,0,1,265.73,206.59Zm0,0a.82.82,0,0,0-.89-.83.83.83,0,1,0,.89.83Z" style="fill:#020100"></path><path d="M275.65,206.59a1,1,0,1,1-.9-1A1,1,0,0,1,275.65,206.59Zm0,0a.84.84,0,0,0-.9-.83.83.83,0,0,0,0,1.66A.85.85,0,0,0,275.65,206.59Z" style="fill:#020100"></path><path d="M285.56,206.59a1,1,0,0,1-1.91,0,1,1,0,1,1,1.91,0Zm0,0a.83.83,0,1,0-.89.83A.84.84,0,0,0,285.56,206.59Z" style="fill:#020100"></path><path d="M226.08,252.26a1,1,0,0,1-.89,1,1,1,0,1,1,0-1.91A1,1,0,0,1,226.08,252.26Zm0,0a.83.83,0,1,0-1.66,0,.83.83,0,1,0,1.66,0Z" style="fill:#020100"></path><path d="M236,252.26a1,1,0,1,1-.9-1A1,1,0,0,1,236,252.26Zm0,0a.84.84,0,1,0-.9.83A.85.85,0,0,0,236,252.26Z" style="fill:#020100"></path><path d="M216.17,252.26a1,1,0,1,1-.89-1A1,1,0,0,1,216.17,252.26Zm0,0a.83.83,0,0,0-.89-.83.83.83,0,0,0,0,1.66A.85.85,0,0,0,216.17,252.26Z" style="fill:#020100"></path><path d="M245.91,252.26a1,1,0,1,1-.89-1A1,1,0,0,1,245.91,252.26Zm0,0a.83.83,0,0,0-.89-.83.83.83,0,0,0,0,1.66A.85.85,0,0,0,245.91,252.26Z" style="fill:#020100"></path><path d="M255.82,252.26a1,1,0,0,1-.89,1,1,1,0,1,1,0-1.91A1,1,0,0,1,255.82,252.26Zm0,0a.83.83,0,1,0-.89.83A.83.83,0,0,0,255.82,252.26Z" style="fill:#020100"></path><path d="M265.73,252.26a1,1,0,0,1-.89,1,1,1,0,1,1,0-1.91A1,1,0,0,1,265.73,252.26Zm0,0a.82.82,0,0,0-.89-.83.83.83,0,1,0,.89.83Z" style="fill:#020100"></path><path d="M275.65,252.26a1,1,0,1,1-.9-1A1,1,0,0,1,275.65,252.26Zm0,0a.84.84,0,0,0-.9-.83.83.83,0,0,0,0,1.66A.85.85,0,0,0,275.65,252.26Z" style="fill:#020100"></path><path d="M285.56,252.26a1,1,0,0,1-1.91,0,1,1,0,1,1,1.91,0Zm0,0a.83.83,0,1,0-.89.83A.84.84,0,0,0,285.56,252.26Z" style="fill:#020100"></path><path d="M226.08,297.93a1,1,0,0,1-.89.95,1,1,0,1,1,0-1.91A1,1,0,0,1,226.08,297.93Zm0,0a.83.83,0,1,0-1.66,0,.83.83,0,1,0,1.66,0Z" style="fill:#020100"></path><path d="M236,297.93a1,1,0,0,1-1.92,0,1,1,0,0,1,1-1A1,1,0,0,1,236,297.93Zm0,0a.84.84,0,1,0-.9.83A.85.85,0,0,0,236,297.93Z" style="fill:#020100"></path><path d="M216.17,297.93a1,1,0,0,1-1.91,0,1,1,0,1,1,1.91,0Zm0,0a.83.83,0,0,0-.89-.83.83.83,0,0,0,0,1.66A.85.85,0,0,0,216.17,297.93Z" style="fill:#020100"></path><path d="M245.91,297.93a1,1,0,0,1-1.91,0,1,1,0,1,1,1.91,0Zm0,0a.83.83,0,0,0-.89-.83.83.83,0,0,0,0,1.66A.85.85,0,0,0,245.91,297.93Z" style="fill:#020100"></path><path d="M255.82,297.93a1,1,0,0,1-.89.95,1,1,0,1,1,0-1.91A1,1,0,0,1,255.82,297.93Zm0,0a.83.83,0,1,0-.89.83A.83.83,0,0,0,255.82,297.93Z" style="fill:#020100"></path><path d="M265.73,297.93a1,1,0,0,1-.89.95,1,1,0,1,1,0-1.91A1,1,0,0,1,265.73,297.93Zm0,0a.82.82,0,0,0-.89-.83.83.83,0,1,0,.89.83Z" style="fill:#020100"></path><path d="M275.65,297.93a1,1,0,1,1-.9-1A1,1,0,0,1,275.65,297.93Zm0,0a.84.84,0,0,0-.9-.83.83.83,0,0,0,0,1.66A.85.85,0,0,0,275.65,297.93Z" style="fill:#020100"></path><path d="M285.56,297.93a1,1,0,0,1-1.91,0,1,1,0,0,1,1-1A1,1,0,0,1,285.56,297.93Zm0,0a.83.83,0,1,0-.89.83A.84.84,0,0,0,285.56,297.93Z" style="fill:#020100"></path><path d="M250,40.81a2.18,2.18,0,0,0-.93.67q-.4.42-.78.87c-.49.6-1,1.23-1.42,1.86-.91,1.26-1.77,2.56-2.6,3.88-1.66,2.64-3.2,5.35-4.66,8.1A127.37,127.37,0,0,0,232,73.27a70,70,0,0,0-4.12,18.15c-.11,1.55-.1,3.1-.09,4.66v14l.09,74.81-.09,74.8-.16,74.81-.17-74.81-.08-74.8.08-74.81v-14c0-1.56,0-3.12.1-4.68a70.24,70.24,0,0,1,4.18-18.21,129.22,129.22,0,0,1,7.67-17.06c1.48-2.74,3-5.44,4.72-8.07.84-1.31,1.71-2.61,2.63-3.87.46-.63.93-1.25,1.43-1.85q.38-.45.78-.87A2.21,2.21,0,0,1,250,40.81Z" style="fill:#020100"></path><path d="M249.82,40.81a2.21,2.21,0,0,1,.94.66c.28.28.54.57.79.87.5.6,1,1.22,1.43,1.85.92,1.26,1.79,2.56,2.63,3.87,1.67,2.63,3.24,5.33,4.72,8.07A129.22,129.22,0,0,1,268,73.19a69.82,69.82,0,0,1,4.17,18.21c.12,1.56.11,3.12.11,4.68v14l.08,74.81-.08,74.8-.17,74.81L272,259.72l-.09-74.8.09-74.81v-14c0-1.56,0-3.11-.1-4.66a69.56,69.56,0,0,0-4.11-18.15,127.37,127.37,0,0,0-7.55-17.08c-1.46-2.75-3-5.46-4.66-8.1-.84-1.32-1.69-2.62-2.6-3.88-.46-.63-.93-1.26-1.42-1.86q-.37-.45-.78-.87A2.15,2.15,0,0,0,249.82,40.81Z" style="fill:#020100"></path></g><path d="M212.15,141.62V334.53H182V141.62c0-11.18-.76-17.66,5.9-27.06,5.8-8.19,8.08-9.27,9.15-9.27s3.36,1.08,9.16,9.27C212.9,124,212.15,130.44,212.15,141.62Z" style="fill:#90CAF9"></path><rect x="212.08" y="136.71" width="6.23" height="2.54" style="fill:#90CAF9"></rect><rect x="212.08" y="160.54" width="6.23" height="2.54" style="fill:#90CAF9"></rect><rect x="212.08" y="184.37" width="6.23" height="2.54" style="fill:#90CAF9"></rect><rect x="212.08" y="208.2" width="6.23" height="2.54" style="fill:#90CAF9"></rect><g style="opacity:0.4"><path d="M212.15,141.62V334.53H182V141.62c0-11.18-.76-17.66,5.9-27.06,5.8-8.19,8.08-9.27,9.15-9.27s3.36,1.08,9.16,9.27C212.9,124,212.15,130.44,212.15,141.62Z" style="fill:#fff"></path><rect x="212.08" y="136.71" width="6.23" height="2.54" style="fill:#fff"></rect><rect x="212.08" y="160.54" width="6.23" height="2.54" style="fill:#fff"></rect><rect x="212.08" y="184.37" width="6.23" height="2.54" style="fill:#fff"></rect><rect x="212.08" y="208.2" width="6.23" height="2.54" style="fill:#fff"></rect></g><g style="opacity:0.1"><path d="M182.58,126.91q3.63-.15,7.26-.19l7.25-.06,7.26,0c2.42,0,4.84.1,7.26.2-2.42.09-4.84.16-7.26.19l-7.26.06-7.25-.06Q186.21,127,182.58,126.91Z" style="fill:#020100"></path><path d="M182,150.38q3.78-.13,7.54-.19l7.54-.06,7.54.06c2.52,0,5,.1,7.54.19-2.51.1-5,.16-7.54.2l-7.54,0-7.54,0C187,150.54,184.53,150.48,182,150.38Z" style="fill:#020100"></path><path d="M182,176.53c2.52-.09,5-.16,7.54-.19l7.54-.06,7.54.06c2.52,0,5,.1,7.54.19-2.51.09-5,.16-7.54.19l-7.54.06-7.54-.06C187,176.69,184.53,176.62,182,176.53Z" style="fill:#020100"></path><path d="M182,202.67q3.78-.13,7.54-.19l7.54-.06,7.54.06q3.78.06,7.54.19c-2.51.1-5,.16-7.54.2l-7.54,0-7.54,0C187,202.83,184.53,202.77,182,202.67Z" style="fill:#020100"></path><path d="M182,228.82c2.52-.09,5-.16,7.54-.19l7.54-.06,7.54.06c2.52,0,5,.1,7.54.19-2.51.09-5,.16-7.54.19l-7.54.06-7.54-.06C187,229,184.53,228.91,182,228.82Z" style="fill:#020100"></path><path d="M182,255c2.52-.1,5-.16,7.54-.2l7.54-.05,7.54.05c2.52,0,5,.1,7.54.2q-3.76.14-7.54.19l-7.54.06-7.54-.06Q185.78,255.1,182,255Z" style="fill:#020100"></path><path d="M182,281.11c2.52-.09,5-.16,7.54-.19l7.54-.06,7.54.06c2.52,0,5,.1,7.54.19-2.51.09-5,.16-7.54.19l-7.54.06-7.54-.06C187,281.27,184.53,281.2,182,281.11Z" style="fill:#020100"></path><path d="M182,307.26c2.52-.09,5-.16,7.54-.19l7.54-.06,7.54.05c2.52,0,5,.1,7.54.2-2.51.09-5,.16-7.54.19l-7.54.06-7.54-.06Q185.78,307.39,182,307.26Z" style="fill:#020100"></path><path d="M203.56,141.88l-6.41.14c-2.16,0-4.34.08-6.52.08h-.22v-.22l0-6.34v-.25h.26c4.31,0,8.62,0,12.93.1h.15v.14Zm0,0-.15-6.34.15.15c-4.31.07-8.62.08-12.93.1l.24-.25,0,6.34-.22-.22c2.12,0,4.26.06,6.41.09Z" style="fill:#020100"></path><path d="M198,128.87a1,1,0,0,1-.9,1,1,1,0,1,1,0-2A1,1,0,0,1,198,128.87Zm0,0a.79.79,0,0,0-.9-.77.78.78,0,0,0,0,1.54A.79.79,0,0,0,198,128.87Z" style="fill:#020100"></path><path d="M207.9,128.87a1,1,0,1,1-.89-1A1,1,0,0,1,207.9,128.87Zm0,0a.77.77,0,1,0-.89.77A.78.78,0,0,0,207.9,128.87Z" style="fill:#020100"></path><path d="M188.07,128.87a1,1,0,1,1-.89-1A1,1,0,0,1,188.07,128.87Zm0,0a.78.78,0,0,0-.89-.77.78.78,0,0,0,0,1.54A.78.78,0,0,0,188.07,128.87Z" style="fill:#020100"></path><path d="M198,152.65a1,1,0,0,1-.9,1,1,1,0,1,1,0-2A1,1,0,0,1,198,152.65Zm0,0a.78.78,0,0,0-.9-.77.78.78,0,0,0,0,1.54A.79.79,0,0,0,198,152.65Z" style="fill:#020100"></path><path d="M207.9,152.65a1,1,0,0,1-2,0,1,1,0,0,1,1.15-1A1,1,0,0,1,207.9,152.65Zm0,0a.77.77,0,0,0-.89-.77.78.78,0,1,0,.89.77Z" style="fill:#020100"></path><path d="M188.07,152.65a1,1,0,1,1-2,0,1,1,0,1,1,2,0Zm0,0a.77.77,0,0,0-.89-.77.78.78,0,0,0,0,1.54A.78.78,0,0,0,188.07,152.65Z" style="fill:#020100"></path><path d="M198,178.9a1,1,0,0,1-.9,1,1,1,0,1,1,0-2A1,1,0,0,1,198,178.9Zm0,0a.79.79,0,0,0-.9-.77.78.78,0,0,0,0,1.54A.79.79,0,0,0,198,178.9Z" style="fill:#020100"></path><path d="M207.9,178.9a1,1,0,1,1-.89-1A1,1,0,0,1,207.9,178.9Zm0,0a.77.77,0,1,0-.89.77A.78.78,0,0,0,207.9,178.9Z" style="fill:#020100"></path><path d="M188.07,178.9a1,1,0,1,1-.89-1A1,1,0,0,1,188.07,178.9Zm0,0a.78.78,0,0,0-.89-.77.78.78,0,0,0,0,1.54A.78.78,0,0,0,188.07,178.9Z" style="fill:#020100"></path><path d="M198,205.15a1,1,0,1,1-2,0,1,1,0,0,1,2,0Zm0,0a.78.78,0,0,0-.9-.76.78.78,0,0,0,0,1.53A.78.78,0,0,0,198,205.15Z" style="fill:#020100"></path><path d="M207.9,205.15a1,1,0,1,1-.89-1A1,1,0,0,1,207.9,205.15Zm0,0a.77.77,0,1,0-.89.77A.77.77,0,0,0,207.9,205.15Z" style="fill:#020100"></path><path d="M188.07,205.15a1,1,0,1,1-.89-1A1,1,0,0,1,188.07,205.15Zm0,0a.77.77,0,0,0-.89-.76.78.78,0,0,0,0,1.53A.77.77,0,0,0,188.07,205.15Z" style="fill:#020100"></path><path d="M198,231.41a1,1,0,0,1-.9,1,1,1,0,1,1,0-2A1,1,0,0,1,198,231.41Zm0,0a.78.78,0,0,0-.9-.77.78.78,0,0,0,0,1.54A.79.79,0,0,0,198,231.41Z" style="fill:#020100"></path><path d="M207.9,231.41a1,1,0,0,1-2,0,1,1,0,0,1,1.15-1A1,1,0,0,1,207.9,231.41Zm0,0a.77.77,0,0,0-.89-.77.78.78,0,1,0,.89.77Z" style="fill:#020100"></path><path d="M188.07,231.41a1,1,0,1,1-2,0,1,1,0,1,1,2,0Zm0,0a.77.77,0,0,0-.89-.77.78.78,0,0,0,0,1.54A.78.78,0,0,0,188.07,231.41Z" style="fill:#020100"></path><path d="M198,257.66a1,1,0,0,1-.9,1,1,1,0,1,1,0-2A1,1,0,0,1,198,257.66Zm0,0a.79.79,0,0,0-.9-.77.78.78,0,0,0,0,1.54A.79.79,0,0,0,198,257.66Z" style="fill:#020100"></path><path d="M207.9,257.66a1,1,0,1,1-.89-1A1,1,0,0,1,207.9,257.66Zm0,0a.77.77,0,1,0-.89.77A.78.78,0,0,0,207.9,257.66Z" style="fill:#020100"></path><path d="M188.07,257.66a1,1,0,1,1-.89-1A1,1,0,0,1,188.07,257.66Zm0,0a.78.78,0,0,0-.89-.77.78.78,0,0,0,0,1.54A.78.78,0,0,0,188.07,257.66Z" style="fill:#020100"></path><path d="M198,283.91a1,1,0,1,1-2,0,1,1,0,0,1,2,0Zm0,0a.78.78,0,0,0-.9-.76.78.78,0,0,0,0,1.53A.78.78,0,0,0,198,283.91Z" style="fill:#020100"></path><path d="M207.9,283.91a1,1,0,1,1-.89-1A1,1,0,0,1,207.9,283.91Zm0,0a.77.77,0,1,0-.89.77A.77.77,0,0,0,207.9,283.91Z" style="fill:#020100"></path><path d="M188.07,283.91a1,1,0,1,1-.89-1A1,1,0,0,1,188.07,283.91Zm0,0a.77.77,0,0,0-.89-.76.78.78,0,0,0,0,1.53A.77.77,0,0,0,188.07,283.91Z" style="fill:#020100"></path><path d="M198,310.17a1,1,0,0,1-.9,1,1,1,0,1,1,0-2A1,1,0,0,1,198,310.17Zm0,0a.78.78,0,0,0-.9-.77.78.78,0,0,0,0,1.54A.79.79,0,0,0,198,310.17Z" style="fill:#020100"></path><path d="M207.9,310.17a1,1,0,0,1-2,0,1,1,0,0,1,1.15-1A1,1,0,0,1,207.9,310.17Zm0,0a.77.77,0,0,0-.89-.77.78.78,0,1,0,.89.77Z" style="fill:#020100"></path><path d="M188.07,310.17a1,1,0,1,1-2,0,1,1,0,1,1,2,0Zm0,0a.77.77,0,0,0-.89-.77.78.78,0,0,0,0,1.54A.78.78,0,0,0,188.07,310.17Z" style="fill:#020100"></path><path d="M191.24,119.39a.54.54,0,1,1-.54-.54A.54.54,0,0,1,191.24,119.39Z" style="fill:#020100"></path><path d="M193.37,122.36a.54.54,0,1,1-.54-.54A.54.54,0,0,1,193.37,122.36Z" style="fill:#020100"></path><path d="M197.63,122.36a.54.54,0,1,1-.54-.54A.54.54,0,0,1,197.63,122.36Z" style="fill:#020100"></path><path d="M201.89,122.36a.54.54,0,1,1-.54-.54A.54.54,0,0,1,201.89,122.36Z" style="fill:#020100"></path><path d="M195.5,119.39a.54.54,0,1,1-.54-.54A.54.54,0,0,1,195.5,119.39Z" style="fill:#020100"></path><path d="M199.76,119.39a.54.54,0,1,1-.54-.54A.54.54,0,0,1,199.76,119.39Z" style="fill:#020100"></path><path d="M204,119.39a.54.54,0,1,1-.54-.54A.54.54,0,0,1,204,119.39Z" style="fill:#020100"></path><path d="M193.37,138.71a.54.54,0,1,1-.54-.53A.54.54,0,0,1,193.37,138.71Z" style="fill:#020100"></path><path d="M197.63,138.71a.54.54,0,1,1-.54-.53A.54.54,0,0,1,197.63,138.71Z" style="fill:#020100"></path><path d="M201.89,138.71a.54.54,0,1,1-.54-.53A.54.54,0,0,1,201.89,138.71Z" style="fill:#020100"></path></g><rect x="176.7" y="136.71" width="5.32" height="11.95" style="fill:#90CAF9"></rect><path d="M287.8,141.62V334.53h30.1V141.62c0-11.18.76-17.66-5.9-27.06-5.8-8.19-8.08-9.27-9.15-9.27s-3.36,1.08-9.15,9.27C287,124,287.8,130.44,287.8,141.62Z" style="fill:#90CAF9"></path><rect x="281.63" y="136.71" width="6.23" height="2.54" transform="translate(569.49 275.96) rotate(180)" style="fill:#90CAF9"></rect><rect x="281.63" y="160.54" width="6.23" height="2.54" transform="translate(569.49 323.62) rotate(180)" style="fill:#90CAF9"></rect><rect x="281.63" y="184.37" width="6.23" height="2.54" transform="translate(569.49 371.28) rotate(180)" style="fill:#90CAF9"></rect><rect x="281.63" y="208.2" width="6.23" height="2.54" transform="translate(569.49 418.94) rotate(180)" style="fill:#90CAF9"></rect><g style="opacity:0.4"><path d="M287.8,141.62V334.53h30.1V141.62c0-11.18.76-17.66-5.9-27.06-5.8-8.19-8.08-9.27-9.15-9.27s-3.36,1.08-9.15,9.27C287,124,287.8,130.44,287.8,141.62Z" style="fill:#fff"></path><rect x="281.63" y="136.71" width="6.23" height="2.54" transform="translate(569.49 275.96) rotate(180)" style="fill:#fff"></rect><rect x="281.63" y="160.54" width="6.23" height="2.54" transform="translate(569.49 323.62) rotate(180)" style="fill:#fff"></rect><rect x="281.63" y="184.37" width="6.23" height="2.54" transform="translate(569.49 371.28) rotate(180)" style="fill:#fff"></rect><rect x="281.63" y="208.2" width="6.23" height="2.54" transform="translate(569.49 418.94) rotate(180)" style="fill:#fff"></rect></g><g style="opacity:0.1"><path d="M317.36,126.91q-3.63.14-7.25.19l-7.26.06-7.26-.06c-2.42,0-4.84-.1-7.26-.19,2.42-.1,4.84-.16,7.26-.2l7.26,0,7.26.06Q313.72,126.77,317.36,126.91Z" style="fill:#020100"></path><path d="M317.93,150.38c-2.51.1-5,.16-7.54.2l-7.54,0-7.54,0c-2.51,0-5-.1-7.54-.2,2.51-.09,5-.16,7.54-.19l7.54-.06,7.54.06C312.9,150.23,315.42,150.29,317.93,150.38Z" style="fill:#020100"></path><path d="M317.93,176.53c-2.51.09-5,.16-7.54.19l-7.54.06-7.54-.06c-2.51,0-5-.1-7.54-.19,2.51-.09,5-.16,7.54-.19l7.54-.06,7.54.06C312.9,176.37,315.42,176.44,317.93,176.53Z" style="fill:#020100"></path><path d="M317.93,202.67c-2.51.1-5,.16-7.54.2l-7.54,0-7.54,0c-2.51,0-5-.1-7.54-.2,2.51-.09,5-.15,7.54-.19l7.54-.06,7.54.06C312.9,202.52,315.42,202.58,317.93,202.67Z" style="fill:#020100"></path><path d="M317.93,228.82c-2.51.09-5,.16-7.54.19l-7.54.06-7.54-.06c-2.51,0-5-.1-7.54-.19,2.51-.09,5-.16,7.54-.19l7.54-.06,7.54.06C312.9,228.66,315.42,228.73,317.93,228.82Z" style="fill:#020100"></path><path d="M317.93,255c-2.51.09-5,.15-7.54.19l-7.54.06-7.54-.06c-2.51,0-5-.1-7.54-.19,2.51-.1,5-.16,7.54-.2l7.54-.05,7.54.05C312.9,254.81,315.42,254.87,317.93,255Z" style="fill:#020100"></path><path d="M317.93,281.11c-2.51.09-5,.16-7.54.19l-7.54.06-7.54-.06c-2.51,0-5-.1-7.54-.19,2.51-.09,5-.16,7.54-.19l7.54-.06,7.54.06C312.9,281,315.42,281,317.93,281.11Z" style="fill:#020100"></path><path d="M317.93,307.26c-2.51.09-5,.15-7.54.19l-7.54.06-7.54-.06c-2.51,0-5-.1-7.54-.19,2.51-.1,5-.16,7.54-.2l7.54-.05,7.54.06C312.9,307.1,315.42,307.17,317.93,307.26Z" style="fill:#020100"></path><path d="M296.38,141.88l6.52-.13c2.15,0,4.29-.09,6.42-.09l-.22.22,0-6.34.25.25c-4.32,0-8.63,0-12.94-.1l.15-.15Zm0,0-.14-6.34v-.14h.15c4.31-.07,8.62-.08,12.94-.1h.25v.25l0,6.34v.22h-.21c-2.19,0-4.37,0-6.53-.08Z" style="fill:#020100"></path><path d="M302,128.87a.77.77,0,1,0,.89-.77A.78.78,0,0,0,302,128.87Zm0,0a1,1,0,1,1,.89,1A1,1,0,0,1,302,128.87Z" style="fill:#020100"></path><path d="M292,128.87a.77.77,0,1,0,.9-.77A.79.79,0,0,0,292,128.87Zm0,0a1,1,0,1,1,.9,1A1,1,0,0,1,292,128.87Z" style="fill:#020100"></path><path d="M311.87,128.87a.78.78,0,0,0,.89.77.78.78,0,0,0,0-1.54A.78.78,0,0,0,311.87,128.87Zm0,0a1,1,0,1,1,.89,1A1,1,0,0,1,311.87,128.87Z" style="fill:#020100"></path><path d="M302,152.65a.77.77,0,1,0,.89-.77A.78.78,0,0,0,302,152.65Zm0,0a1,1,0,1,1,.89,1A1,1,0,0,1,302,152.65Z" style="fill:#020100"></path><path d="M292,152.65a.77.77,0,1,0,.9-.77A.79.79,0,0,0,292,152.65Zm0,0a1,1,0,1,1,.9,1A1,1,0,0,1,292,152.65Z" style="fill:#020100"></path><path d="M311.87,152.65a.78.78,0,0,0,.89.77.78.78,0,1,0-.89-.77Zm0,0a1,1,0,1,1,.89,1A1,1,0,0,1,311.87,152.65Z" style="fill:#020100"></path><path d="M302,178.9a.77.77,0,1,0,.89-.77A.78.78,0,0,0,302,178.9Zm0,0a1,1,0,1,1,.89,1A1,1,0,0,1,302,178.9Z" style="fill:#020100"></path><path d="M292,178.9a.77.77,0,1,0,.9-.77A.79.79,0,0,0,292,178.9Zm0,0a1,1,0,1,1,.9,1A1,1,0,0,1,292,178.9Z" style="fill:#020100"></path><path d="M311.87,178.9a.78.78,0,0,0,.89.77.78.78,0,0,0,0-1.54A.78.78,0,0,0,311.87,178.9Zm0,0a1,1,0,1,1,.89,1A1,1,0,0,1,311.87,178.9Z" style="fill:#020100"></path><path d="M302,205.15a.77.77,0,1,0,.89-.76A.77.77,0,0,0,302,205.15Zm0,0a1,1,0,1,1,2,0,1,1,0,1,1-2,0Z" style="fill:#020100"></path><path d="M292,205.15a.77.77,0,1,0,1.54,0,.77.77,0,0,0-.64-.76A.78.78,0,0,0,292,205.15Zm0,0a1,1,0,0,1,2,0,1,1,0,1,1-2,0Z" style="fill:#020100"></path><path d="M311.87,205.15a.77.77,0,0,0,.89.77.78.78,0,0,0,0-1.53A.77.77,0,0,0,311.87,205.15Zm0,0a1,1,0,1,1,2,0,1,1,0,1,1-2,0Z" style="fill:#020100"></path><path d="M302,231.41a.77.77,0,1,0,.89-.77A.78.78,0,0,0,302,231.41Zm0,0a1,1,0,1,1,.89,1A1,1,0,0,1,302,231.41Z" style="fill:#020100"></path><path d="M292,231.41a.77.77,0,1,0,.9-.77A.79.79,0,0,0,292,231.41Zm0,0a1,1,0,1,1,.9,1A1,1,0,0,1,292,231.41Z" style="fill:#020100"></path><path d="M311.87,231.41a.78.78,0,0,0,.89.77.78.78,0,1,0-.89-.77Zm0,0a1,1,0,1,1,.89,1A1,1,0,0,1,311.87,231.41Z" style="fill:#020100"></path><path d="M302,257.66a.77.77,0,1,0,.89-.77A.78.78,0,0,0,302,257.66Zm0,0a1,1,0,1,1,.89,1A1,1,0,0,1,302,257.66Z" style="fill:#020100"></path><path d="M292,257.66a.77.77,0,1,0,.9-.77A.79.79,0,0,0,292,257.66Zm0,0a1,1,0,1,1,.9,1A1,1,0,0,1,292,257.66Z" style="fill:#020100"></path><path d="M311.87,257.66a.78.78,0,0,0,.89.77.78.78,0,0,0,0-1.54A.78.78,0,0,0,311.87,257.66Zm0,0a1,1,0,1,1,.89,1A1,1,0,0,1,311.87,257.66Z" style="fill:#020100"></path><path d="M302,283.91a.77.77,0,1,0,.89-.76A.77.77,0,0,0,302,283.91Zm0,0a1,1,0,1,1,2,0,1,1,0,1,1-2,0Z" style="fill:#020100"></path><path d="M292,283.91a.77.77,0,1,0,1.54,0,.77.77,0,0,0-.64-.76A.78.78,0,0,0,292,283.91Zm0,0a1,1,0,0,1,2,0,1,1,0,1,1-2,0Z" style="fill:#020100"></path><path d="M311.87,283.91a.77.77,0,0,0,.89.77.78.78,0,0,0,0-1.53A.77.77,0,0,0,311.87,283.91Zm0,0a1,1,0,1,1,2,0,1,1,0,1,1-2,0Z" style="fill:#020100"></path><path d="M302,310.17a.77.77,0,1,0,.89-.77A.78.78,0,0,0,302,310.17Zm0,0a1,1,0,1,1,.89,1A1,1,0,0,1,302,310.17Z" style="fill:#020100"></path><path d="M292,310.17a.77.77,0,1,0,.9-.77A.79.79,0,0,0,292,310.17Zm0,0a1,1,0,1,1,.9,1A1,1,0,0,1,292,310.17Z" style="fill:#020100"></path><path d="M311.87,310.17a.78.78,0,0,0,.89.77.78.78,0,1,0-.89-.77Zm0,0a1,1,0,1,1,.89,1A1,1,0,0,1,311.87,310.17Z" style="fill:#020100"></path><path d="M308.7,119.39a.54.54,0,1,0,.54-.54A.54.54,0,0,0,308.7,119.39Z" style="fill:#020100"></path><path d="M306.57,122.36a.54.54,0,1,0,.54-.54A.54.54,0,0,0,306.57,122.36Z" style="fill:#020100"></path><path d="M302.31,122.36a.54.54,0,1,0,.54-.54A.54.54,0,0,0,302.31,122.36Z" style="fill:#020100"></path><path d="M298.06,122.36a.53.53,0,1,0,.53-.54A.53.53,0,0,0,298.06,122.36Z" style="fill:#020100"></path><path d="M304.44,119.39a.54.54,0,1,0,.54-.54A.54.54,0,0,0,304.44,119.39Z" style="fill:#020100"></path><path d="M300.18,119.39a.54.54,0,1,0,.54-.54A.54.54,0,0,0,300.18,119.39Z" style="fill:#020100"></path><path d="M295.93,119.39a.54.54,0,1,0,.53-.54A.53.53,0,0,0,295.93,119.39Z" style="fill:#020100"></path><path d="M306.57,138.71a.54.54,0,1,0,.54-.53A.54.54,0,0,0,306.57,138.71Z" style="fill:#020100"></path><path d="M302.31,138.71a.54.54,0,1,0,.54-.53A.54.54,0,0,0,302.31,138.71Z" style="fill:#020100"></path><path d="M298.06,138.71a.53.53,0,1,0,.53-.53A.53.53,0,0,0,298.06,138.71Z" style="fill:#020100"></path></g><rect x="317.93" y="136.71" width="5.32" height="11.95" transform="translate(641.17 285.37) rotate(180)" style="fill:#90CAF9"></rect><path d="M227.79,338.79V194.67s-5.72,9.75-6.91,14.53c-2,8.11-5,33.94-9,43.36-1.22,2.84-7.24,10.9-15,18.3-10.2,9.77-23.2,19.45-28.46,25.86-7,8.61-7.64,18.42-7.64,42.07Z" style="fill:#455a64"></path><path d="M225.7,231.92c-1.64,10-3.71,22.49-6.18,28.21-1.08,2.51-6.64,10-13.86,16.89-4.07,3.91-8.56,7.75-12.91,11.46-5.71,4.88-11.11,9.49-14,13-6.49,7.92-7.38,16.8-7.45,37.27h2.23c0-19.89.88-28.48,6.93-35.86,2.79-3.4,8.11-7.95,13.75-12.76,4.36-3.73,8.88-7.59,13-11.55,7.53-7.21,13.18-14.85,14.37-17.61,2.52-5.83,4.56-18,6.22-28.07V220.26C227.18,223,226.49,227.15,225.7,231.92Z" style="fill:#90CAF9"></path><path d="M227.79,254v84.81H176.85C177,320.85,178,312.6,184,305.27c4.95-6,17.21-15.18,26.84-24.39,7.27-7,13-14.58,14.11-17.26A58,58,0,0,0,227.79,254Z" style="fill:#90CAF9"></path><rect x="181.69" y="338.79" width="31.92" height="14.79" style="fill:#263238"></rect><rect x="183.76" y="353.58" width="27.78" height="4.32" style="fill:#37474f"></rect><rect x="185.99" y="357.9" width="23.34" height="3.37" style="fill:#263238"></rect><rect x="178.34" y="371.93" width="38.64" height="3.77" style="fill:#263238"></rect><path d="M215,371.93H180.32a19.43,19.43,0,0,1,34.68,0Z" style="fill:#37474f"></path><path d="M272.21,338.79V194.67s5.72,9.75,6.91,14.53c2,8.11,5,33.94,9,43.36,1.22,2.84,7.24,10.9,15,18.3,10.2,9.77,23.2,19.45,28.46,25.86,7.05,8.61,7.64,18.42,7.64,42.07Z" style="fill:#455a64"></path><path d="M272.21,220.26v12.68c1.66,10,3.7,22.24,6.22,28.07,1.19,2.76,6.84,10.4,14.37,17.61,4.12,4,8.64,7.82,13,11.55,5.64,4.81,11,9.36,13.75,12.76,6.05,7.38,6.88,16,6.93,35.86h2.23c-.07-20.47-1-29.35-7.45-37.27-2.9-3.55-8.3-8.16-14-13-4.35-3.71-8.84-7.55-12.91-11.46-7.22-6.91-12.78-14.38-13.86-16.89-2.47-5.72-4.54-18.19-6.18-28.21C273.51,227.15,272.82,223,272.21,220.26Z" style="fill:#90CAF9"></path><path d="M272.21,254v84.81h50.94C323,320.85,322,312.6,316,305.27c-5-6-17.21-15.18-26.84-24.39-7.27-7-13-14.58-14.11-17.26A58,58,0,0,1,272.21,254Z" style="fill:#90CAF9"></path><rect x="286.39" y="338.79" width="31.92" height="14.79" transform="translate(604.69 692.37) rotate(180)" style="fill:#263238"></rect><rect x="288.45" y="353.58" width="27.78" height="4.32" transform="translate(604.69 711.48) rotate(180)" style="fill:#37474f"></rect><rect x="290.68" y="357.9" width="23.34" height="3.37" transform="translate(604.69 719.17) rotate(180)" style="fill:#263238"></rect><rect x="283.03" y="371.93" width="38.64" height="3.77" transform="translate(604.69 747.63) rotate(180)" style="fill:#263238"></rect><path d="M285,371.93h34.68a19.43,19.43,0,0,0-34.68,0Z" style="fill:#37474f"></path><path d="M277.35,174.41V296.73h-54.7V174.41c0-11.09,1.85-21.16,9.06-37.82s10.66-23.71,18.29-23.71,11.09,7,18.29,23.71S277.35,163.32,277.35,174.41Z" style="fill:#ebebeb"></path><path d="M222.65,176.67q6.84-.15,13.68-.19l13.67-.06,13.67.05q6.84.06,13.68.2-6.84.14-13.68.19l-13.67.06-13.67-.06Q229.49,176.8,222.65,176.67Z" style="fill:#c7c7c7"></path><path d="M222.65,217.31q6.84-.15,13.68-.2l13.67-.05,13.67.05q6.84.06,13.68.2-6.84.13-13.68.19l-13.67.06-13.67-.06Q229.49,217.44,222.65,217.31Z" style="fill:#c7c7c7"></path><path d="M222.65,258q6.84-.15,13.68-.2L250,257.7l13.67.05q6.84.06,13.68.2-6.84.14-13.68.19L250,258.2l-13.67-.06Q229.49,258.08,222.65,258Z" style="fill:#c7c7c7"></path><path d="M226.11,179.81a.94.94,0,0,1-.89.95,1,1,0,0,1-1-.95,1,1,0,0,1,1-1A1,1,0,0,1,226.11,179.81Zm0,0a.83.83,0,1,0-.89.83A.83.83,0,0,0,226.11,179.81Z" style="fill:#c7c7c7"></path><path d="M236,179.81a.94.94,0,0,1-.89.95,1,1,0,1,1,0-1.91A1,1,0,0,1,236,179.81Zm0,0a.83.83,0,1,0-.89.83A.83.83,0,0,0,236,179.81Z" style="fill:#c7c7c7"></path><path d="M265.76,179.81a.94.94,0,0,1-.89.95,1,1,0,0,1-1-.95,1,1,0,0,1,1-1A1,1,0,0,1,265.76,179.81Zm0,0a.83.83,0,1,0-.89.83A.83.83,0,0,0,265.76,179.81Z" style="fill:#c7c7c7"></path><path d="M275.68,179.81a1,1,0,0,1-1.91,0,1,1,0,1,1,1.91,0Zm0,0a.84.84,0,1,0-.9.83A.84.84,0,0,0,275.68,179.81Z" style="fill:#c7c7c7"></path><path d="M226.11,221a1,1,0,0,1-.89,1,1,1,0,0,1-1-1,1,1,0,0,1,1-.95A.94.94,0,0,1,226.11,221Zm0,0a.83.83,0,1,0-1.66,0,.83.83,0,1,0,1.66,0Z" style="fill:#c7c7c7"></path><path d="M236,221a1,1,0,0,1-.89,1,1,1,0,0,1-1-1,1,1,0,0,1,1-.95A.94.94,0,0,1,236,221Zm0,0a.83.83,0,1,0-.89.83A.84.84,0,0,0,236,221Z" style="fill:#c7c7c7"></path><path d="M265.76,221a1,1,0,0,1-.89,1,1,1,0,0,1-1-1,1,1,0,0,1,1-.95A.94.94,0,0,1,265.76,221Zm0,0a.83.83,0,1,0-.89.83A.84.84,0,0,0,265.76,221Z" style="fill:#c7c7c7"></path><path d="M275.68,221a1,1,0,1,1-1.91,0,1,1,0,0,1,1.91,0Zm0,0a.84.84,0,0,0-1.67,0,.84.84,0,0,0,1.67,0Z" style="fill:#c7c7c7"></path><path d="M226.11,262.26a1,1,0,0,1-1.91,0,1,1,0,0,1,1-1A1,1,0,0,1,226.11,262.26Zm0,0a.83.83,0,1,0-.89.83A.83.83,0,0,0,226.11,262.26Z" style="fill:#c7c7c7"></path><path d="M236,262.26a1,1,0,0,1-.89.95,1,1,0,1,1,0-1.91A1,1,0,0,1,236,262.26Zm0,0a.83.83,0,1,0-.89.83A.83.83,0,0,0,236,262.26Z" style="fill:#c7c7c7"></path><path d="M265.76,262.26a1,1,0,0,1-1.91,0,1,1,0,0,1,1-1A1,1,0,0,1,265.76,262.26Zm0,0a.83.83,0,1,0-.89.83A.83.83,0,0,0,265.76,262.26Z" style="fill:#c7c7c7"></path><path d="M275.68,262.26a1,1,0,1,1-.9-1A1,1,0,0,1,275.68,262.26Zm0,0a.84.84,0,1,0-.9.83A.84.84,0,0,0,275.68,262.26Z" style="fill:#c7c7c7"></path><polygon points="250 176.67 250.13 236.85 250 297.03 249.88 236.85 250 176.67" style="fill:#c7c7c7"></polygon><rect x="244.6" y="169.29" width="10.81" height="4.19" style="fill:#c7c7c7"></rect><path d="M240.78,153.51l2.13,5.08a27.71,27.71,0,0,0-4.87,2.88l-2.41-4.62A24,24,0,0,1,240.78,153.51Z" style="fill:#263238"></path><path d="M259.22,153.51l-2.13,5.08a27.71,27.71,0,0,1,4.87,2.88l2.41-4.62A24,24,0,0,0,259.22,153.51Z" style="fill:#263238"></path><path d="M257,152.54l-2.17,5.17a13.94,13.94,0,0,0-9.64,0L243,152.54a19.17,19.17,0,0,1,14,0Z" style="fill:#263238"></path><path d="M267.66,135.12H232.34c6.78-15.61,10.26-22.24,17.66-22.24S260.88,119.51,267.66,135.12Z" style="fill:#90CAF9"></path><path d="M267.66,135.12H232.34c6.78-15.61,10.26-22.24,17.66-22.24S260.88,119.51,267.66,135.12Z" style="opacity:0.2"></path><rect x="245.75" y="130.3" width="8.5" height="2.77" style="fill:#ebebeb"></rect><rect x="224.87" y="296.72" width="50.26" height="48.23" style="fill:#dbdbdb"></rect><polygon points="275.13 300.61 224.87 303.01 224.87 296.73 275.13 296.73 275.13 300.61" style="fill:#c7c7c7"></polygon><rect x="227.84" y="344.95" width="10.63" height="6.84" style="fill:#a6a6a6"></rect><path d="M239.64,358.27h-13a6.48,6.48,0,0,1,13,0Z" style="fill:#dbdbdb"></path><rect x="260.92" y="344.95" width="10.63" height="6.84" style="fill:#a6a6a6"></rect><path d="M272.71,358.27H259.76a6.48,6.48,0,1,1,12.95,0Z" style="fill:#dbdbdb"></path><path d="M255.27,320.84s-1.59,17.5-2,23.25c-.6,7.67-1.46,12.19-3.23,12.19s-2.63-4.52-3.23-12.19c-.46-5.75-2-23.25-2-23.25l5.27-8.9Z" style="fill:#c7c7c7"></path></g></svg>